<svg width="1100" height="760" viewBox="0 0 1100 760" fill="none" xmlns="http://www.w3.org/2000/svg">
  <defs>
    <linearGradient id="bg" x1="90" y1="40" x2="1010" y2="720" gradientUnits="userSpaceOnUse">
      <stop stop-color="#667EEA"/>
      <stop offset="1" stop-color="#764BA2"/>
    </linearGradient>
    <filter id="shadow" x="0" y="0" width="1100" height="760" filterUnits="userSpaceOnUse" color-interpolation-filters="sRGB">
      <feDropShadow dx="0" dy="24" stdDeviation="28" flood-opacity="0.2"/>
    </filter>
  </defs>
  <rect width="1100" height="760" fill="url(#bg)"/>
  <g filter="url(#shadow)">
    <rect x="210" y="58" width="680" height="644" rx="28" fill="white"/>
  </g>
  <text x="550" y="128" fill="#1F2937" font-family="Segoe UI, Arial, sans-serif" font-size="38" font-weight="700" text-anchor="middle">WhatsApp Config</text>
  <rect x="270" y="170" width="250" height="112" rx="16" fill="#F8FAFC"/>
  <rect x="580" y="170" width="250" height="112" rx="16" fill="#F8FAFC"/>
  <rect x="270" y="170" width="6" height="112" rx="3" fill="#667EEA"/>
  <rect x="580" y="170" width="6" height="112" rx="3" fill="#667EEA"/>
  <text x="302" y="208" fill="#9CA3AF" font-family="Segoe UI, Arial, sans-serif" font-size="14" font-weight="700">SESSION NAME</text>
  <text x="302" y="248" fill="#111827" font-family="Segoe UI, Arial, sans-serif" font-size="26" font-weight="700">Sales-01</text>
  <text x="612" y="208" fill="#9CA3AF" font-family="Segoe UI, Arial, sans-serif" font-size="14" font-weight="700">STATUS</text>
  <text x="612" y="248" fill="#111827" font-family="Segoe UI, Arial, sans-serif" font-size="26" font-weight="700">CONNECTED</text>
  <rect x="612" y="256" width="120" height="28" rx="999" fill="#DCFCE7"/>
  <text x="672" y="275" fill="#166534" font-family="Segoe UI, Arial, sans-serif" font-size="13" font-weight="700" text-anchor="middle">READY TO SEND</text>
  <rect x="270" y="320" width="560" height="208" rx="18" fill="#F8FAFC" stroke="#667EEA" stroke-width="3" stroke-dasharray="8 8"/>
  <text x="550" y="362" fill="#6B7280" font-family="Segoe UI, Arial, sans-serif" font-size="16" font-weight="700" text-anchor="middle">SCAN TO LOGIN</text>
  <rect x="444" y="384" width="212" height="112" rx="12" fill="white"/>
  <rect x="468" y="404" width="32" height="32" fill="#111827"/>
  <rect x="510" y="404" width="10" height="10" fill="#111827"/>
  <rect x="530" y="404" width="10" height="10" fill="#111827"/>
  <rect x="548" y="404" width="28" height="28" fill="#111827"/>
  <rect x="588" y="404" width="44" height="44" fill="#111827"/>
  <rect x="468" y="446" width="16" height="16" fill="#111827"/>
  <rect x="494" y="446" width="22" height="22" fill="#111827"/>
  <rect x="528" y="446" width="12" height="12" fill="#111827"/>
  <rect x="548" y="446" width="18" height="18" fill="#111827"/>
  <rect x="574" y="446" width="12" height="12" fill="#111827"/>
  <rect x="596" y="458" width="18" height="18" fill="#111827"/>
  <text x="550" y="516" fill="#9CA3AF" font-family="Segoe UI, Arial, sans-serif" font-size="13" text-anchor="middle">Use WhatsApp on your phone to scan this QR code</text>
  <line x1="270" y1="566" x2="830" y2="566" stroke="#E5E7EB"/>
  <text x="270" y="614" fill="#4B5563" font-family="Segoe UI, Arial, sans-serif" font-size="15" font-weight="700">Recipient Phone</text>
  <text x="560" y="614" fill="#4B5563" font-family="Segoe UI, Arial, sans-serif" font-size="15" font-weight="700">Message</text>
  <rect x="270" y="630" width="250" height="52" rx="12" fill="#FAFBFC" stroke="#E5E7EB" stroke-width="2"/>
  <rect x="560" y="630" width="270" height="52" rx="12" fill="#FAFBFC" stroke="#E5E7EB" stroke-width="2"/>
  <text x="294" y="663" fill="#9CA3AF" font-family="Segoe UI, Arial, sans-serif" font-size="14">62812345678</text>
  <text x="584" y="663" fill="#9CA3AF" font-family="Segoe UI, Arial, sans-serif" font-size="14">Enter your message...</text>
</svg>
